# xmcd
#
# Track frame offsets: 
#        150
#        17140
#        33310
#        44572
#        63972
#        79435
#        91787
#        112020
#        125910
#        142937
#        160607
#        175197
#        191985
#        205775
#        227042
#        241225
#
# Disc length: 3359 seconds
#
# Revision: 0
# Processed by: cddbd v1.5.2PL0 Copyright (c) Steve Scherf et al.
# Submitted via: ExactAudioCopy v0.99pb4
#
DISCID=da0d1d10
DTITLE=Anson Funderburgh - Tell Me What I Want To Hear
DYEAR=2009
DGENRE=
TTITLE0=Tell Me What I Want To Hear
TTITLE1=Ways Of A Man
TTITLE2=I Done Quit Getting Sloppy Drunk
TTITLE3=I Want A Wife
TTITLE4=I'm Innocent
TTITLE5=Shedding Tears Of Laughter
TTITLE6=Rent Man Blues
TTITLE7=I Need You So Bad
TTITLE8=Waitin' On You, Mamma
TTITLE9=It'll Do
TTITLE10=The Amateur (She's Gone)
TTITLE11=Missing Person
TTITLE12=Happy Man
TTITLE13=Down At J.J.'s
TTITLE14=Make A Little Love Tonight (Bonus Track)
TTITLE15=Look What You're Doing To Me (Bonus Track)
EXTD=
EXTT0=
EXTT1=
EXTT2=
EXTT3=
EXTT4=
EXTT5=
EXTT6=
EXTT7=
EXTT8=
EXTT9=
EXTT10=
EXTT11=
EXTT12=
EXTT13=
EXTT14=
EXTT15=
PLAYORDER=
